<mxfile host="Electron" modified="2024-02-10T06:19:53.193Z" agent="Mozilla/5.0 (Macintosh; Intel Mac OS X 10_15_7) AppleWebKit/537.36 (KHTML, like Gecko) draw.io/23.0.2 Chrome/120.0.6099.109 Electron/28.1.0 Safari/537.36" etag="_CimP6NShbrl67vwPJLv" version="23.0.2" type="device">
  <diagram name="페이지-1" id="TDJ3Fm0WZCrvMc8LsvKk">
    <mxGraphModel dx="1114" dy="894" grid="1" gridSize="10" guides="1" tooltips="1" connect="1" arrows="1" fold="1" page="1" pageScale="1" pageWidth="827" pageHeight="1169" math="0" shadow="0">
      <root>
        <mxCell id="0" />
        <mxCell id="1" parent="0" />
        <mxCell id="YjKBUB9Yanwj0md_x61j-1" value="AccountRepository" style="rounded=0;whiteSpace=wrap;html=1;" vertex="1" parent="1">
          <mxGeometry x="520" y="180" width="120" height="60" as="geometry" />
        </mxCell>
        <mxCell id="YjKBUB9Yanwj0md_x61j-2" style="edgeStyle=orthogonalEdgeStyle;rounded=0;orthogonalLoop=1;jettySize=auto;html=1;entryX=0;entryY=0.5;entryDx=0;entryDy=0;endArrow=block;endFill=1;" edge="1" parent="1" source="YjKBUB9Yanwj0md_x61j-3" target="YjKBUB9Yanwj0md_x61j-1">
          <mxGeometry relative="1" as="geometry" />
        </mxCell>
        <mxCell id="YjKBUB9Yanwj0md_x61j-3" value="AccountService" style="rounded=0;whiteSpace=wrap;html=1;" vertex="1" parent="1">
          <mxGeometry x="320" y="120" width="120" height="60" as="geometry" />
        </mxCell>
        <mxCell id="YjKBUB9Yanwj0md_x61j-4" style="edgeStyle=orthogonalEdgeStyle;rounded=0;orthogonalLoop=1;jettySize=auto;html=1;entryX=0;entryY=0.5;entryDx=0;entryDy=0;endArrow=block;endFill=1;" edge="1" parent="1" source="YjKBUB9Yanwj0md_x61j-6" target="YjKBUB9Yanwj0md_x61j-3">
          <mxGeometry relative="1" as="geometry" />
        </mxCell>
        <mxCell id="YjKBUB9Yanwj0md_x61j-6" value="AccountConroller" style="rounded=0;whiteSpace=wrap;html=1;" vertex="1" parent="1">
          <mxGeometry x="120" y="120" width="120" height="60" as="geometry" />
        </mxCell>
        <mxCell id="YjKBUB9Yanwj0md_x61j-9" style="edgeStyle=orthogonalEdgeStyle;rounded=0;orthogonalLoop=1;jettySize=auto;html=1;entryX=0;entryY=0.5;entryDx=0;entryDy=0;endArrow=block;endFill=1;" edge="1" parent="1" source="YjKBUB9Yanwj0md_x61j-10" target="YjKBUB9Yanwj0md_x61j-1">
          <mxGeometry relative="1" as="geometry">
            <mxPoint x="520" y="270" as="targetPoint" />
          </mxGeometry>
        </mxCell>
        <mxCell id="YjKBUB9Yanwj0md_x61j-10" value="UserService" style="rounded=0;whiteSpace=wrap;html=1;fillColor=#fff2cc;strokeColor=#d6b656;" vertex="1" parent="1">
          <mxGeometry x="320" y="240" width="120" height="60" as="geometry" />
        </mxCell>
        <mxCell id="YjKBUB9Yanwj0md_x61j-11" style="edgeStyle=orthogonalEdgeStyle;rounded=0;orthogonalLoop=1;jettySize=auto;html=1;entryX=0;entryY=0.5;entryDx=0;entryDy=0;endArrow=block;endFill=1;" edge="1" parent="1" source="YjKBUB9Yanwj0md_x61j-13" target="YjKBUB9Yanwj0md_x61j-10">
          <mxGeometry relative="1" as="geometry" />
        </mxCell>
        <mxCell id="YjKBUB9Yanwj0md_x61j-12" style="edgeStyle=orthogonalEdgeStyle;rounded=0;orthogonalLoop=1;jettySize=auto;html=1;curved=1;startArrow=block;startFill=1;endArrow=none;endFill=0;fillColor=#f8cecc;strokeColor=#b85450;" edge="1" parent="1" source="YjKBUB9Yanwj0md_x61j-13" target="YjKBUB9Yanwj0md_x61j-14">
          <mxGeometry relative="1" as="geometry" />
        </mxCell>
        <mxCell id="YjKBUB9Yanwj0md_x61j-13" value="UserConroller" style="rounded=0;whiteSpace=wrap;html=1;fillColor=#fff2cc;strokeColor=#d6b656;" vertex="1" parent="1">
          <mxGeometry x="120" y="240" width="120" height="60" as="geometry" />
        </mxCell>
        <mxCell id="YjKBUB9Yanwj0md_x61j-14" value="여기에도 권한 부여 적용 필요" style="text;html=1;strokeColor=#b85450;fillColor=#f8cecc;align=center;verticalAlign=middle;whiteSpace=wrap;rounded=0;" vertex="1" parent="1">
          <mxGeometry x="160" y="330" width="170" height="30" as="geometry" />
        </mxCell>
        <mxCell id="YjKBUB9Yanwj0md_x61j-15" style="edgeStyle=orthogonalEdgeStyle;rounded=0;orthogonalLoop=1;jettySize=auto;html=1;curved=1;startArrow=block;startFill=1;endArrow=none;endFill=0;fillColor=#f8cecc;strokeColor=#b85450;exitX=0.5;exitY=0;exitDx=0;exitDy=0;" edge="1" parent="1" target="YjKBUB9Yanwj0md_x61j-16" source="YjKBUB9Yanwj0md_x61j-6">
          <mxGeometry relative="1" as="geometry">
            <mxPoint x="170" y="10" as="sourcePoint" />
          </mxGeometry>
        </mxCell>
        <mxCell id="YjKBUB9Yanwj0md_x61j-16" value="계정과 연관된 권한 부여 구성 적용" style="text;html=1;strokeColor=#b85450;fillColor=#f8cecc;align=center;verticalAlign=middle;whiteSpace=wrap;rounded=0;" vertex="1" parent="1">
          <mxGeometry x="150" y="60" width="170" height="30" as="geometry" />
        </mxCell>
        <mxCell id="YjKBUB9Yanwj0md_x61j-17" style="edgeStyle=orthogonalEdgeStyle;rounded=0;orthogonalLoop=1;jettySize=auto;html=1;curved=1;startArrow=block;startFill=1;endArrow=none;endFill=0;fillColor=#e1d5e7;strokeColor=#9673a6;" edge="1" parent="1" target="YjKBUB9Yanwj0md_x61j-18">
          <mxGeometry relative="1" as="geometry">
            <mxPoint x="580" y="240" as="sourcePoint" />
          </mxGeometry>
        </mxCell>
        <mxCell id="YjKBUB9Yanwj0md_x61j-18" value="권한 부여 구성을 이곳에 하는 것이 좋음" style="text;html=1;strokeColor=#9673a6;fillColor=#e1d5e7;align=center;verticalAlign=middle;whiteSpace=wrap;rounded=0;" vertex="1" parent="1">
          <mxGeometry x="550" y="300" width="200" height="40" as="geometry" />
        </mxCell>
      </root>
    </mxGraphModel>
  </diagram>
</mxfile>
